<svg xmlns="http://www.w3.org/2000/svg" viewBox="0 0 360 67"><path fill="#1d1d1b" d="M16.3 22.6c-5.6 0-9.5-3.6-9.5-8.6s4-8.6 9.5-8.6c3.4 0 6.1 1.2 7.8 3.2l5.6-3.2A17.4 17.4 0 0016.3 0C7 0 0 5.7 0 14c0 8.2 7 14 16.3 14a17 17 0 0013.6-5.8l-5.5-3.3c-1.7 2.4-4.7 3.7-8 3.7zM52.4 12.7H40.5V.8h-6.4V28h6.4V18h12v10h6.4V.8h-6.5v11.9zM65.7.8h6.8V28h-6.8zM85.7.8h-6.4V28H93v-5.2h-7.3V.8zM287 .8h-6.3V28h13.6v-5.2h-7.2V.8zM104.7 22.7V6.1h5.8c5.9 0 9.7 3.3 9.7 8.3 0 5-3.8 8.3-9.7 8.3zM110.5.8H98V28h12.4c9.5 0 16.6-5.3 16.6-13.6S120.1.8 110.5.8zM144.2 12.8H137V6.1h7.2c2.8 0 4.3 1.2 4.3 3.4s-1.5 3.3-4.3 3.3zm11-3.3c0-5.1-4.1-8.7-10.8-8.7h-13.9V28h6.5V18h4.2l7.2 9.9h7.7l-8-10.3c4.4-1 7-4.2 7-8.2zM167 16.9h8v-5.3h-8V6.1h12.6V.8h-19.2V28H180v-5.2h-13v-5.9zM206.8 18L192.7.8h-5.9V28h6.5V10.8L207.4 28h5.9V.8h-6.5V18zM353.5.8V18L339.5.8h-6V28h6.5V10.8L354.1 28h5.9V.8h-6.5zM231.8 11.6c-4.7-.7-6.3-1.4-6.3-3 0-2 1.9-3.2 5.8-3.2 3 0 6 .8 8.8 2.2l3-4.8A23.7 23.7 0 00231.8 0c-6 0-13.3 1.9-13.3 9.2 0 4.7 3 6.2 12.5 8 3.4.7 5.9 1 5.9 3.2 0 2-2.2 3.1-5.4 3.1-3.6 0-8.1-1.3-10.8-3.1l-3 4.7c2.1 1.5 7.7 3.7 13.5 3.7 7.7 0 12.9-3.3 12.9-8.7 0-6.4-7.7-7.7-12.2-8.5zM257 16.6l4-10 4.1 10zm.4-15.8L245.7 28h6.6l2.5-6h12.4l2.6 6h6.6L264.7.8zM313 22.6c-5.6 0-9.4-3.5-9.4-8.6s3.9-8.6 9.5-8.6 9.5 3.5 9.5 8.6-3.9 8.6-9.5 8.6zM313 0C303.9 0 297 5.7 297 14c0 8.2 6.9 14 16.2 14 9.3 0 16.2-5.8 16.2-14S322.4 0 313 0zM127.4 62.7c0 .4 0 .8.2 1.2l.7.8.9.4 1.1.2a3.5 3.5 0 001.2-.2l.7-.4.4-.6.2-.7a1.5 1.5 0 00-.3-1 1.7 1.7 0 00-.7-.5 13.1 13.1 0 00-1.4-.4 63.4 63.4 0 01-2-.6 4.2 4.2 0 01-1.2-.5 3 3 0 01-.8-.7 2.6 2.6 0 01-.4-.9 3.6 3.6 0 01-.2-1 3.3 3.3 0 011.4-2.7c.4-.3.8-.5 1.3-.6a5.8 5.8 0 013.2 0c.6.2 1 .4 1.5.8a3.6 3.6 0 011.3 2.9h-2a2 2 0 00-.8-1.7 2.9 2.9 0 00-1.7-.5 3.6 3.6 0 00-.8 0 2.2 2.2 0 00-.6.3 1.5 1.5 0 00-.5.5 1.5 1.5 0 00.1 1.8c.3.3.7.5 1 .6l.5.1 1 .3 1.1.3.7.2a3.2 3.2 0 011.7 1.3 3 3 0 01.6 1.8 3.6 3.6 0 01-.4 1.7 3.5 3.5 0 01-1 1.2 4.4 4.4 0 01-1.5.7 6.7 6.7 0 01-1.7.2 6.6 6.6 0 01-1.8-.3 4.3 4.3 0 01-1.6-.7 3.8 3.8 0 01-1-1.4 4.7 4.7 0 01-.4-2zM138.2 55.1h1.7V67h-1.7zM145 55.1h2.2l5.3 8.8V55h2V67h-2.2l-5.3-8.7V67h-2zM165.9 58.4a4.3 4.3 0 00-.4-1 2.7 2.7 0 00-.6-.7 2.8 2.8 0 00-1-.5 3.5 3.5 0 00-1-.2 3.5 3.5 0 00-1.8.4l-1.1 1c-.3.5-.6 1-.7 1.5a6.7 6.7 0 000 3.4 4.6 4.6 0 00.7 1.5 3.3 3.3 0 002.8 1.5c.5 0 .9-.1 1.3-.3.4-.1.7-.4 1-.7l.6-1 .3-1.2h2a5.7 5.7 0 01-.4 2 4.9 4.9 0 01-1.1 1.5 4.8 4.8 0 01-1.6 1 5.6 5.6 0 01-2 .4 5.8 5.8 0 01-2.5-.5 5.4 5.4 0 01-1.9-1.4 6 6 0 01-1.1-2 7.6 7.6 0 010-5 6 6 0 011.1-2 5.5 5.5 0 011.9-1.3 5.7 5.7 0 012.4-.5 6.6 6.6 0 012 .3 5 5 0 011.6.8 4.3 4.3 0 011.1 1.3c.3.5.5 1.1.6 1.7zM171.5 55.1h8.4V57h-6.4V60h6v1.7h-6v3.5h6.5V67h-8.5zM192 57h1.2l1-.3.8-.7c.2-.2.4-.5.5-.9h1.6V67h-2.2v-8.4h-3zM205.5 56.7h1l.6.6.4.8a3 3 0 010 1.8 2.4 2.4 0 01-.4.7 1.9 1.9 0 01-.7.6 2.3 2.3 0 01-1 .2 2 2 0 01-.9-.2 2 2 0 01-.7-.5 2.2 2.2 0 01-.4-.8 3.1 3.1 0 010-.9 3 3 0 010-.9l.4-.7.7-.5c.3-.2.6-.2 1-.2zm-4 7.2c0 .4.2.9.4 1.3l.8 1 1.2.6a4.5 4.5 0 003.5-.3 4.3 4.3 0 001.4-1.4 6 6 0 00.8-2c.2-.6.3-1.3.3-2l-.2-2.3a5.5 5.5 0 00-.7-2 3.4 3.4 0 00-1.3-1.2 4.4 4.4 0 00-2.2-.5 5 5 0 00-1.7.3 3.7 3.7 0 00-1.4.8 3.5 3.5 0 00-.8 1.3 4.1 4.1 0 00-.3 1.5 4.3 4.3 0 00.3 1.6c.2.5.4.9.8 1.2a3.5 3.5 0 001.2.8c.5.2 1 .3 1.6.3a3.4 3.4 0 001.5-.4 2.6 2.6 0 001.1-1v1.3a4.8 4.8 0 01-.4 1.3l-.8 1a2 2 0 01-1.3.4 1.8 1.8 0 01-1.2-.5 1.7 1.7 0 01-.6-1.1zM214.8 55.1h6.4v1.7h-4.9l-.6 3c.3-.3.6-.5 1-.6a3.7 3.7 0 011.3-.3 4.3 4.3 0 011.6.3 3.3 3.3 0 012 2l.2 1.6a4.8 4.8 0 01-.2 1.5 3.9 3.9 0 01-2.1 2.3c-.6.3-1.3.4-2 .4a5.9 5.9 0 01-1.6-.2 4 4 0 01-1.3-.7 3.3 3.3 0 01-1-1.1 3.6 3.6 0 01-.3-1.5h2c0 .5.2 1 .6 1.4a2.4 2.4 0 001.6.5c.4 0 .8 0 1-.2.4-.1.6-.3.8-.5l.4-.9.1-1a3 3 0 00-.1-.9 2.3 2.3 0 00-.5-.7 2 2 0 00-.7-.6 2.5 2.5 0 00-1-.2c-.4 0-.8 0-1.2.2-.4.2-.7.5-.8.9h-2zM232.9 67h-7.7a4.9 4.9 0 01.7-2.5 6.3 6.3 0 011.8-2l1.1-.7a9 9 0 001.1-.9c.3-.2.6-.6.8-1 .2-.3.4-.7.4-1.1a3.4 3.4 0 00-.1-.7 1.8 1.8 0 00-.3-.7 1.7 1.7 0 00-.6-.5 2 2 0 00-1-.2 1.7 1.7 0 00-.8.2c-.3.2-.5.4-.6.7a3.1 3.1 0 00-.3.9 6.9 6.9 0 00-.2 1.1h-1.8a6.1 6.1 0 01.2-1.8 4 4 0 01.8-1.4c.3-.4.7-.7 1.2-1a3.8 3.8 0 011.7-.3c.6 0 1.2.1 1.7.4a3.3 3.3 0 011.7 2l.2 1.2c0 .4 0 .9-.2 1.3a4.1 4.1 0 01-.6 1l-.8.9a12 12 0 01-1.9 1.4l-.9.6a5.3 5.3 0 00-.7.7 1.9 1.9 0 00-.4.7h5.5z"/></svg>